<?xml version="1.0" encoding="utf-8"?>
<!-- Generator: Adobe Illustrator 17.0.0, SVG Export Plug-In . SVG Version: 6.00 Build 0)  -->
<!DOCTYPE svg PUBLIC "-//W3C//DTD SVG 1.1//EN" "http://www.w3.org/Graphics/SVG/1.1/DTD/svg11.dtd">
<svg version="1.1" id="Layer_1" xmlns="http://www.w3.org/2000/svg" xmlns:xlink="http://www.w3.org/1999/xlink" x="0px" y="0px" viewBox="0 0 6.84 6.84" enable-background="new 0 0 6.84 6.84" xml:space="preserve">
<path fill-rule="evenodd" clip-rule="evenodd" fill="#FFFFFF" d="M6.692,5.976l-1.57-1.57L5.114,4.413
	c0.317-0.455,0.505-1.007,0.505-1.604C5.619,1.258,4.361,0,2.809,0C1.258,0,0,1.258,0,2.809s1.258,2.809,2.809,2.809
	c0.597,0,1.149-0.188,1.604-0.505L4.406,5.121l1.57,1.57C6.075,6.791,6.204,6.84,6.334,6.84c0.13,0,0.259-0.049,0.358-0.148
	C6.889,6.494,6.889,6.174,6.692,5.976z M2.809,4.886c-1.145,0-2.076-0.931-2.076-2.076s0.932-2.076,2.076-2.076
	c1.145,0,2.076,0.932,2.076,2.076S3.954,4.886,2.809,4.886z"/>
</svg>
