<?xml version="1.0" encoding="utf-8"?>
<!-- Generator: Adobe Illustrator 17.0.0, SVG Export Plug-In . SVG Version: 6.00 Build 0)  -->
<!DOCTYPE svg PUBLIC "-//W3C//DTD SVG 1.1//EN" "http://www.w3.org/Graphics/SVG/1.1/DTD/svg11.dtd">
<svg version="1.1" id="Layer_1" xmlns="http://www.w3.org/2000/svg" xmlns:xlink="http://www.w3.org/1999/xlink" x="0px" y="0px"
	 viewBox="0 0 418.911 412.268" enable-background="new 0 0 418.911 412.268"
	 xml:space="preserve">
<g id="Layer_1_1_">
</g>
<g id="bg">
</g>
<g id="mid">
</g>
<g id="fore">
	<g>
		<g>
			<g>
				<g>
					<path fill="#E2E2E2" d="M413.51,367.124v-71.386c0-8.763-5.871-16.963-14.634-16.963H228.171c-8.76,0-16.685,8.2-16.685,16.963
						v71.386c0,8.76,7.925,14.01,16.685,14.01h170.705C407.64,381.134,413.51,375.883,413.51,367.124z M248.523,375.073v-88.218
						h130.643v88.218H248.523z"/>
				</g>
			</g>
		</g>
	</g>
</g>
<g id="Layer_5">
</g>
<g id="Layer_6">
</g>
<g id="fore_1_">
	<g>
		<g>
			<g>
				<g>
					<g>
						<path fill="#FFFFFF" d="M188.655,76.75h-71.386c-8.763,0-16.963,5.871-16.963,14.634v170.705c0,8.76,8.2,16.685,16.963,16.685
							h71.386c8.76,0,14.01-7.925,14.01-16.685V91.384C202.666,82.62,197.414,76.75,188.655,76.75z M196.605,241.737h-88.218
							V111.094h88.218V241.737z"/>
					</g>
				</g>
			</g>
		</g>
	</g>
</g>
<g>
	<g>
		<path fill="none" stroke="#FFFFFF" stroke-width="4" stroke-miterlimit="10" d="M324.456,231.054
			c0-30.016-18.505-55.913-45.345-68.092"/>
		<g>
			<polygon fill="#FFFFFF" points="289.331,154.261 244.457,155.534 283.957,176.874 			"/>
		</g>
	</g>
</g>
</svg>
