<?xml version="1.0" encoding="utf-8"?>
<!-- Generator: Adobe Illustrator 17.0.0, SVG Export Plug-In . SVG Version: 6.00 Build 0)  -->
<!DOCTYPE svg PUBLIC "-//W3C//DTD SVG 1.1//EN" "http://www.w3.org/Graphics/SVG/1.1/DTD/svg11.dtd">
<svg version="1.1" id="Layer_1" xmlns="http://www.w3.org/2000/svg" xmlns:xlink="http://www.w3.org/1999/xlink" x="0px" y="0px"
	 viewBox="0 0 49.68 10.8" enable-background="new 0 0 49.68 10.8" xml:space="preserve">
<g>
	<g>
		<path fill="#FFFFFF" d="M17.591,6.686h-0.019L16.89,3.075h-1.376l1.29,4.811h1.492l1.337-4.811h-1.328L17.591,6.686z
			 M23.551,4.591c0-0.879-0.222-1.611-1.944-1.611c-0.519,0-0.961,0.085-1.27,0.315c-0.319,0.218-0.501,0.591-0.501,1.173h1.329
			c0-0.383,0.038-0.736,0.509-0.736c0.492,0,0.55,0.295,0.55,0.705v0.372c-1.261-0.019-2.502,0.046-2.502,1.639
			c0,0.838,0.346,1.534,1.289,1.534c0.587,0,0.98-0.237,1.27-0.733H22.3l0.057,0.638h1.262c-0.029-0.295-0.069-0.601-0.069-0.896
			V4.591z M21.55,7.153c-0.443,0-0.5-0.42-0.5-0.762c0-0.856,0.5-0.8,1.174-0.83C22.224,6.085,22.349,7.153,21.55,7.153z
			 M21.415,1.234h-1.068v1.03h1.068V1.234z M23.119,1.234H22.05v1.03h1.069V1.234z M25.352,4.246c0-0.325,0.164-0.515,0.462-0.515
			c0.145,0,0.259,0.022,0.346,0.106c0.097,0.085,0.134,0.286,0.134,0.618h1.327c0.078-1.037-0.759-1.476-1.683-1.476
			c-0.875,0-1.914,0.314-1.914,1.353c0,1.535,2.385,1.306,2.385,2.325c0,0.324-0.231,0.496-0.5,0.496
			c-0.27,0-0.413-0.076-0.491-0.229c-0.066-0.154-0.075-0.363-0.066-0.58h-1.327c-0.079,1.342,0.71,1.637,1.895,1.637
			c1.125,0,1.817-0.627,1.817-1.467C27.737,4.97,25.352,5.008,25.352,4.246z M32.366,1.712l-1.356,0.6v0.763h-1.231V1.712
			l-1.358,0.6v0.763h-0.547v0.828h0.547v2.964c0,0.296,0.155,1.067,1.329,1.067c0.326,0,0.519-0.03,0.702-0.048V7.058
			c-0.067,0.019-0.154,0.019-0.24,0.019c-0.444,0-0.433-0.238-0.433-0.599V3.903h1.231v2.964c0,0.296,0.153,1.067,1.327,1.067
			c0.328,0,0.519-0.03,0.703-0.048V7.058c-0.067,0.019-0.156,0.019-0.241,0.019c-0.443,0-0.432-0.238-0.432-0.599V3.903h0.701V3.075
			h-0.701V1.712z M34.901,3.694h-0.018V3.075h-1.291v4.811h1.358v-2.62c0-0.477,0.019-1.163,1.212-1.09V2.979
			C35.615,2.979,35.153,3.141,34.901,3.694z M40.039,4.59c0-0.879-0.221-1.611-1.943-1.611c-0.52,0-0.962,0.085-1.269,0.314
			c-0.319,0.218-0.5,0.591-0.5,1.173h1.327c0-0.383,0.039-0.736,0.51-0.736c0.491,0,0.548,0.295,0.548,0.705v0.373
			c-1.261-0.019-2.501,0.046-2.501,1.639c0,0.838,0.347,1.534,1.288,1.534c0.588,0,0.982-0.237,1.272-0.732h0.018l0.057,0.638h1.26
			c-0.029-0.295-0.068-0.601-0.068-0.896V4.59z M38.039,7.153c-0.443,0-0.501-0.42-0.501-0.762c0-0.858,0.501-0.8,1.174-0.83
			C38.712,6.085,38.837,7.153,38.039,7.153z M40.892,3.069h-0.612V3.94h0.612v3.947h1.36V3.94h0.642V3.069h-0.642l0.001-0.344
			c-0.001-0.366,0.062-0.433,0.641-0.429V1.212c-0.164-0.011-0.295-0.022-0.459-0.022C40.782,1.19,40.884,1.689,40.892,3.069z
			 M43.45,2.296h1.357V1.24H43.45V2.296z M43.45,7.886h1.357V3.075H43.45V7.886z M48.151,5.217l1.377-2.142h-1.416L46.89,5.104
			H46.87l0.001-3.872h-1.365l0.007,6.654h1.357v-2.62h0.019l1.261,2.62h1.53L48.151,5.217z M9.75,5.345
			C9.312,4.92,8.874,4.557,8.438,4.223c0.448-0.947,0.783-2.087,0.886-3.461c0,0,2.165,0.435,3.19,2.482
			c0.22-0.052,0.449-0.095,0.688-0.13C12.333,1.275,10.454,0,8.269,0C6.557,0,5.035,0.785,4.035,2.007C1.682,1.383,0,1.738,0,1.738
			c7.285,1.468,9.725,7.495,9.725,7.495c1.033-2.421,2.211-3.912,3.19-4.827c0.064,0.294,0.111,0.607,0.125,0.952
			c0,0,0.097,1.708-1.127,3.049c0,0-1.287,1.705-3.642,1.677c0,0-2.229,0.134-3.781-1.837c0,0,1.33-0.543,2.6-1.973
			c-0.178-0.167-0.358-0.33-0.536-0.487C5.94,6.485,5.146,7.138,4.112,7.658c0,0-1.123-1.759-0.298-3.935
			c-0.202-0.131-0.399-0.253-0.591-0.37C2.962,3.984,2.815,4.674,2.815,5.4c0,2.982,2.442,5.4,5.454,5.4
			c3.012,0,5.452-2.418,5.452-5.4c0-0.521-0.078-1.023-0.218-1.499c0.861-0.67,1.459-0.85,1.459-0.85
			C11.843,3.252,9.75,5.345,9.75,5.345z M4.746,2.221c0.695-0.769,1.92-1.658,3.872-1.559c0,0-0.015,1.446-0.775,3.119
			C6.761,3.036,5.711,2.544,4.746,2.221z"/>
	</g>
</g>
</svg>
